<svg width="22" height="22" viewBox="0 0 22 22" fill="none" xmlns="http://www.w3.org/2000/svg">
<path d="M15.5454 11.0003C15.5454 11.8995 15.2787 12.7784 14.7792 13.526C14.2796 14.2736 13.5695 14.8563 12.7388 15.2003C11.908 15.5444 10.9939 15.6344 10.112 15.4589C9.2301 15.2834 8.42006 14.8503 7.78431 14.2145C7.14856 13.5786 6.71566 12.7685 6.54036 11.8866C6.36506 11.0047 6.45523 10.0906 6.79946 9.25997C7.1437 8.42932 7.72654 7.7194 8.47428 7.22C9.22202 6.7206 10.1011 6.45415 11.0002 6.45435C12.2058 6.45461 13.3619 6.93367 14.2142 7.78618C15.0666 8.63869 15.5454 9.79482 15.5454 11.0003Z" stroke="black" stroke-width="1.5" stroke-linecap="round" stroke-linejoin="round"/>
<path d="M11.0039 1V2.8178" stroke="black" stroke-width="1.5" stroke-linecap="round" stroke-linejoin="round"/>
<path d="M11.0039 19.1822V21" stroke="black" stroke-width="1.5" stroke-linecap="round" stroke-linejoin="round"/>
<path d="M3.92969 3.9274L5.22083 5.2185" stroke="black" stroke-width="1.5" stroke-linecap="round" stroke-linejoin="round"/>
<path d="M16.7812 16.7824L18.0724 18.0735" stroke="black" stroke-width="1.5" stroke-linecap="round" stroke-linejoin="round"/>
<path d="M1 11.0007H2.81786" stroke="black" stroke-width="1.5" stroke-linecap="round" stroke-linejoin="round"/>
<path d="M19.1836 11.0007H21.0015" stroke="black" stroke-width="1.5" stroke-linecap="round" stroke-linejoin="round"/>
<path d="M3.92969 18.0735L5.22083 16.7824" stroke="black" stroke-width="1.5" stroke-linecap="round" stroke-linejoin="round"/>
<path d="M16.7812 5.2185L18.0724 3.9274" stroke="black" stroke-width="1.5" stroke-linecap="round" stroke-linejoin="round"/>
</svg>
