<svg width="22" height="22" viewBox="0 0 22 22" fill="none" xmlns="http://www.w3.org/2000/svg">
<path d="M20.514 17.3928C19.5995 17.3274 18.6981 17.1222 17.8366 16.7834C18.1098 14.8849 17.9143 12.9419 17.2699 11.152C16.6255 9.36196 15.5552 7.7888 14.1678 6.59243C10.7159 3.5075 5.47137 5.748 1.38403 1.06343C0.432052 -0.0310652 0.985148 13.334 6.101 18.3981C7.33495 19.639 8.86549 20.4796 10.5185 20.8244C12.1715 21.1691 13.8806 21.0042 15.4514 20.3483C16.1885 19.9242 16.8238 19.3192 17.3067 18.5816C18.2727 18.9446 19.2723 19.1928 20.2878 19.3217C20.9952 19.4197 21.3511 17.5336 20.514 17.3928ZM16.1008 17.7786C12.62 16.4244 9.49842 14.1667 7.00891 11.2029C6.97343 11.1641 6.95307 11.1121 6.95206 11.0575C6.95104 11.003 6.96944 10.9501 7.00345 10.9098C7.03746 10.8696 7.08446 10.8451 7.1347 10.8414C7.18494 10.8377 7.23457 10.8551 7.27328 10.89C10.0273 13.3643 13.177 15.2698 16.5658 16.512C16.5574 16.981 16.3926 17.4309 16.1019 17.7786H16.1008Z" stroke="black"/>
</svg>
