<svg width="22" height="22" viewBox="0 0 22 22" fill="none" xmlns="http://www.w3.org/2000/svg">
<path d="M4.25015 3.857H2.75003C2.65146 3.85674 2.55383 3.88429 2.46274 3.93809C2.37166 3.99188 2.2889 4.07085 2.21924 4.17046C2.14958 4.27007 2.09438 4.38836 2.05681 4.51853C2.01924 4.6487 2.00004 4.7882 2.00032 4.929V9.572H1.2499C1.18368 9.57226 1.12023 9.60996 1.0734 9.67686C1.02657 9.74375 1.00018 9.8344 1 9.929V12.072C1.00018 12.1666 1.02657 12.2573 1.0734 12.3241C1.12023 12.391 1.18368 12.4287 1.2499 12.429H2.00032V17.072C2.00013 17.2127 2.0194 17.3521 2.05701 17.4822C2.09462 17.6122 2.14984 17.7304 2.21949 17.8299C2.28914 17.9294 2.37186 18.0083 2.46291 18.062C2.55395 18.1157 2.65152 18.1433 2.75003 18.143H4.25015C4.34865 18.1433 4.44623 18.1157 4.53727 18.062C4.62831 18.0083 4.71103 17.9294 4.78069 17.8299C4.85034 17.7304 4.90556 17.6122 4.94317 17.4822C4.98078 17.3521 5.00004 17.2127 4.99986 17.072V4.929C5.00014 4.7882 4.98094 4.6487 4.94337 4.51853C4.9058 4.38836 4.8506 4.27007 4.78093 4.17046C4.71127 4.07085 4.62852 3.99188 4.53743 3.93809C4.44634 3.88429 4.34871 3.85674 4.25015 3.857V3.857ZM20.7501 9.571H20.0004V4.929C20.0006 4.78828 19.9813 4.6489 19.9437 4.51884C19.9061 4.38878 19.8509 4.27061 19.7812 4.1711C19.7116 4.0716 19.6288 3.99272 19.5378 3.93899C19.4468 3.88526 19.3492 3.85774 19.2507 3.858H17.7506C17.652 3.85774 17.5545 3.88526 17.4634 3.93899C17.3724 3.99272 17.2897 4.0716 17.22 4.1711C17.1504 4.27061 17.0951 4.38878 17.0575 4.51884C17.0199 4.6489 17.0007 4.78828 17.0008 4.929V17.071C17.0007 17.2117 17.0199 17.3511 17.0575 17.4812C17.0951 17.6112 17.1504 17.7294 17.22 17.8289C17.2897 17.9284 17.3724 18.0073 17.4634 18.061C17.5545 18.1147 17.652 18.1423 17.7506 18.142H19.2507C19.3492 18.1423 19.4468 18.1147 19.5378 18.061C19.6288 18.0073 19.7116 17.9284 19.7812 17.8289C19.8509 17.7294 19.9061 17.6112 19.9437 17.4812C19.9813 17.3511 20.0006 17.2117 20.0004 17.071V12.429H20.7501C20.8163 12.4287 20.8798 12.391 20.9266 12.3241C20.9734 12.2573 20.9998 12.1666 21 12.072V9.929C21 9.83423 20.9737 9.74332 20.9268 9.67621C20.88 9.6091 20.8164 9.57127 20.7501 9.571V9.571ZM15.2501 1H13.75C13.6515 0.999741 13.5539 1.02726 13.4629 1.08099C13.3718 1.13472 13.2891 1.2136 13.2195 1.31311C13.1498 1.41261 13.0946 1.53078 13.057 1.66084C13.0194 1.7909 13.0001 1.93028 13.0003 2.071V9.571H9.00042V2.071C9.00061 1.9302 8.98132 1.79073 8.94366 1.66061C8.90601 1.53048 8.85073 1.41227 8.781 1.31275C8.71127 1.21323 8.62847 1.13437 8.53734 1.0807C8.44622 1.02703 8.34857 0.999609 8.25001 1H6.74989C6.65138 0.999741 6.55381 1.02726 6.46277 1.08099C6.37172 1.13472 6.289 1.2136 6.21935 1.31311C6.1497 1.41261 6.09448 1.53078 6.05687 1.66084C6.01926 1.7909 5.99999 1.93028 6.00018 2.071V19.929C5.99999 20.0697 6.01926 20.2091 6.05687 20.3392C6.09448 20.4692 6.1497 20.5874 6.21935 20.6869C6.289 20.7864 6.37172 20.8653 6.46277 20.919C6.55381 20.9727 6.65138 21.0003 6.74989 21H8.25001C8.34851 21.0003 8.44609 20.9727 8.53713 20.919C8.62817 20.8653 8.71089 20.7864 8.78055 20.6869C8.8502 20.5874 8.90542 20.4692 8.94303 20.3392C8.98064 20.2091 8.99991 20.0697 8.99972 19.929V12.429H12.9996V19.929C12.9994 20.0697 13.0187 20.2091 13.0563 20.3392C13.0939 20.4692 13.1491 20.5874 13.2188 20.6869C13.2884 20.7864 13.3711 20.8653 13.4622 20.919C13.5532 20.9727 13.6508 21.0003 13.7493 21H15.2494C15.3479 21.0003 15.4455 20.9727 15.5365 20.919C15.6276 20.8653 15.7103 20.7864 15.78 20.6869C15.8496 20.5874 15.9048 20.4692 15.9424 20.3392C15.98 20.2091 15.9993 20.0697 15.9991 19.929V2.071C15.9993 1.93037 15.9801 1.79106 15.9425 1.66107C15.9049 1.53108 15.8498 1.41295 15.7802 1.31346C15.7106 1.21397 15.628 1.13507 15.537 1.08128C15.4461 1.02749 15.3486 0.999872 15.2501 1V1Z" stroke="#1F1F1F" stroke-width="1.5"/>
</svg>
